<svg width="25" height="25" viewBox="0 0 25 25" fill="none" xmlns="http://www.w3.org/2000/svg">
<path d="M21.8197 8.65081C21.8092 7.86188 21.6615 7.08079 21.3833 6.34248C21.142 5.71972 20.7734 5.15415 20.3012 4.68189C19.8289 4.20963 19.2633 3.84108 18.6406 3.59977C17.9118 3.32619 17.1418 3.17825 16.3635 3.16227C15.3614 3.11748 15.0437 3.10498 12.5 3.10498C9.9562 3.10498 9.63016 3.10498 8.63537 3.16227C7.85741 3.17837 7.08781 3.3263 6.35933 3.59977C5.73647 3.84091 5.17081 4.2094 4.69853 4.68168C4.22625 5.15396 3.85775 5.71962 3.61662 6.34248C3.34248 7.07074 3.19487 7.84051 3.18016 8.61852C3.13537 9.62165 3.12183 9.93936 3.12183 12.4831C3.12183 15.0269 3.12183 15.3519 3.18016 16.3477C3.19578 17.1269 3.34266 17.8956 3.61662 18.6258C3.85816 19.2485 4.22693 19.8139 4.69936 20.286C5.1718 20.7581 5.73752 21.1264 6.36037 21.3675C7.08686 21.6521 7.85659 21.8106 8.63641 21.8362C9.63953 21.881 9.95724 21.8946 12.501 21.8946C15.0447 21.8946 15.3708 21.8946 16.3656 21.8362C17.1439 21.8209 17.9139 21.6733 18.6427 21.3998C19.2653 21.1582 19.8307 20.7895 20.3029 20.3173C20.7751 19.8451 21.1438 19.2797 21.3854 18.6571C21.6593 17.9279 21.8062 17.1591 21.8218 16.3789C21.8666 15.3769 21.8802 15.0591 21.8802 12.5144C21.8781 9.97061 21.8781 9.64769 21.8197 8.65081ZM12.4937 17.2935C9.83328 17.2935 7.67808 15.1383 7.67808 12.4779C7.67808 9.81748 9.83328 7.66227 12.4937 7.66227C13.7709 7.66227 14.9958 8.16963 15.8989 9.07274C16.802 9.97584 17.3093 11.2007 17.3093 12.4779C17.3093 13.7551 16.802 14.98 15.8989 15.8831C14.9958 16.7862 13.7709 17.2935 12.4937 17.2935ZM17.501 8.60706C17.3535 8.6072 17.2074 8.57825 17.0711 8.52187C16.9348 8.46548 16.811 8.38277 16.7067 8.27847C16.6024 8.17417 16.5197 8.05033 16.4633 7.91403C16.4069 7.77773 16.3779 7.63165 16.3781 7.48415C16.3781 7.33675 16.4071 7.1908 16.4635 7.05463C16.5199 6.91845 16.6026 6.79472 16.7068 6.69049C16.811 6.58627 16.9348 6.50359 17.0709 6.44719C17.2071 6.39078 17.3531 6.36175 17.5005 6.36175C17.6479 6.36175 17.7938 6.39078 17.93 6.44719C18.0662 6.50359 18.1899 6.58627 18.2941 6.69049C18.3984 6.79472 18.481 6.91845 18.5374 7.05463C18.5938 7.1908 18.6229 7.33675 18.6229 7.48415C18.6229 8.10498 18.1208 8.60706 17.501 8.60706Z" fill="white"/>
<path d="M12.4938 15.6063C14.2215 15.6063 15.622 14.2058 15.622 12.4782C15.622 10.7506 14.2215 9.3501 12.4938 9.3501C10.7662 9.3501 9.36572 10.7506 9.36572 12.4782C9.36572 14.2058 10.7662 15.6063 12.4938 15.6063Z" fill="white"/>
</svg>
